<?xml version="1.0" encoding="UTF-8"?>
<svg width="512" height="512" viewBox="0 0 512 512" fill="none" xmlns="http://www.w3.org/2000/svg">
    <rect width="512" height="512" rx="256" fill="#1E40AF"/>
    <path d="M384 256C384 326.692 326.692 384 256 384C185.308 384 128 326.692 128 256C128 185.308 185.308 128 256 128C326.692 128 384 185.308 384 256ZM176 256C176 300.112 211.888 336 256 336C300.112 336 336 300.112 336 256C336 211.888 300.112 176 256 176C211.888 176 176 211.888 176 256Z" fill="white"/>
    <path d="M256 208C273.673 208 288 222.327 288 240C288 257.673 273.673 272 256 272C238.327 272 224 257.673 224 240C224 222.327 238.327 208 256 208Z" fill="white"/>
</svg>
